<mxfile host="Electron" agent="Mozilla/5.0 (X11; Linux x86_64) AppleWebKit/537.36 (KHTML, like Gecko) draw.io/26.0.4 Chrome/128.0.6613.186 Electron/32.2.5 Safari/537.36" version="26.0.4" pages="3">
  <diagram id="O9aIsOtASrqC3C7IqI2-" name="Process View">
    <mxGraphModel dx="1878" dy="1077" grid="1" gridSize="10" guides="1" tooltips="1" connect="1" arrows="1" fold="1" page="1" pageScale="1" pageWidth="1169" pageHeight="827" math="0" shadow="0">
      <root>
        <mxCell id="0" />
        <mxCell id="1" parent="0" />
        <mxCell id="jXzjgC-DZ79DmXHGKMOa-3" style="edgeStyle=orthogonalEdgeStyle;rounded=0;orthogonalLoop=1;jettySize=auto;html=1;" parent="1" source="jXzjgC-DZ79DmXHGKMOa-1" target="jXzjgC-DZ79DmXHGKMOa-2" edge="1">
          <mxGeometry relative="1" as="geometry" />
        </mxCell>
        <mxCell id="jXzjgC-DZ79DmXHGKMOa-1" value="" style="points=[[0.145,0.145,0],[0.5,0,0],[0.855,0.145,0],[1,0.5,0],[0.855,0.855,0],[0.5,1,0],[0.145,0.855,0],[0,0.5,0]];shape=mxgraph.bpmn.event;html=1;verticalLabelPosition=bottom;labelBackgroundColor=#ffffff;verticalAlign=top;align=center;perimeter=ellipsePerimeter;outlineConnect=0;aspect=fixed;outline=standard;symbol=general;" parent="1" vertex="1">
          <mxGeometry x="40" y="335" width="50" height="50" as="geometry" />
        </mxCell>
        <mxCell id="jXzjgC-DZ79DmXHGKMOa-5" style="edgeStyle=orthogonalEdgeStyle;rounded=0;orthogonalLoop=1;jettySize=auto;html=1;entryX=0;entryY=0.5;entryDx=0;entryDy=0;entryPerimeter=0;" parent="1" source="jXzjgC-DZ79DmXHGKMOa-2" target="jXzjgC-DZ79DmXHGKMOa-4" edge="1">
          <mxGeometry relative="1" as="geometry" />
        </mxCell>
        <mxCell id="jXzjgC-DZ79DmXHGKMOa-2" value="Upload files in Web UI" style="points=[[0.25,0,0],[0.5,0,0],[0.75,0,0],[1,0.25,0],[1,0.5,0],[1,0.75,0],[0.75,1,0],[0.5,1,0],[0.25,1,0],[0,0.75,0],[0,0.5,0],[0,0.25,0]];shape=mxgraph.bpmn.task;whiteSpace=wrap;rectStyle=rounded;size=10;html=1;taskMarker=user;align=center;" parent="1" vertex="1">
          <mxGeometry x="160" y="320" width="120" height="80" as="geometry" />
        </mxCell>
        <mxCell id="jXzjgC-DZ79DmXHGKMOa-12" style="edgeStyle=none;rounded=0;orthogonalLoop=1;jettySize=auto;html=1;" parent="1" source="jXzjgC-DZ79DmXHGKMOa-4" target="jXzjgC-DZ79DmXHGKMOa-11" edge="1">
          <mxGeometry relative="1" as="geometry" />
        </mxCell>
        <mxCell id="jXzjgC-DZ79DmXHGKMOa-4" value="Create new &lt;br&gt;DataSet record in DB, move files into &quot;tmp&quot; storage layer" style="points=[[0.25,0,0],[0.5,0,0],[0.75,0,0],[1,0.25,0],[1,0.5,0],[1,0.75,0],[0.75,1,0],[0.5,1,0],[0.25,1,0],[0,0.75,0],[0,0.5,0],[0,0.25,0]];shape=mxgraph.bpmn.task;whiteSpace=wrap;rectStyle=rounded;size=10;html=1;taskMarker=service;align=center;" parent="1" vertex="1">
          <mxGeometry x="360" y="320" width="120" height="80" as="geometry" />
        </mxCell>
        <mxCell id="jXzjgC-DZ79DmXHGKMOa-22" style="edgeStyle=none;rounded=0;orthogonalLoop=1;jettySize=auto;html=1;entryX=0;entryY=0.5;entryDx=0;entryDy=0;entryPerimeter=0;" parent="1" source="jXzjgC-DZ79DmXHGKMOa-11" target="jXzjgC-DZ79DmXHGKMOa-21" edge="1">
          <mxGeometry relative="1" as="geometry" />
        </mxCell>
        <mxCell id="jXzjgC-DZ79DmXHGKMOa-11" value="Malware scan,&lt;br&gt;delete all uploaded files if any malware is identified" style="points=[[0.25,0,0],[0.5,0,0],[0.75,0,0],[1,0.25,0],[1,0.5,0],[1,0.75,0],[0.75,1,0],[0.5,1,0],[0.25,1,0],[0,0.75,0],[0,0.5,0],[0,0.25,0]];shape=mxgraph.bpmn.task;whiteSpace=wrap;rectStyle=rounded;size=10;html=1;taskMarker=service;align=center;" parent="1" vertex="1">
          <mxGeometry x="560" y="320" width="120" height="80" as="geometry" />
        </mxCell>
        <mxCell id="jXzjgC-DZ79DmXHGKMOa-24" style="edgeStyle=none;rounded=0;orthogonalLoop=1;jettySize=auto;html=1;" parent="1" source="jXzjgC-DZ79DmXHGKMOa-21" target="jXzjgC-DZ79DmXHGKMOa-23" edge="1">
          <mxGeometry relative="1" as="geometry" />
        </mxCell>
        <mxCell id="jXzjgC-DZ79DmXHGKMOa-28" style="edgeStyle=none;rounded=0;orthogonalLoop=1;jettySize=auto;html=1;" parent="1" source="jXzjgC-DZ79DmXHGKMOa-21" target="jXzjgC-DZ79DmXHGKMOa-27" edge="1">
          <mxGeometry relative="1" as="geometry" />
        </mxCell>
        <mxCell id="jXzjgC-DZ79DmXHGKMOa-21" value="" style="points=[[0.25,0.25,0],[0.5,0,0],[0.75,0.25,0],[1,0.5,0],[0.75,0.75,0],[0.5,1,0],[0.25,0.75,0],[0,0.5,0]];shape=mxgraph.bpmn.gateway2;html=1;verticalLabelPosition=bottom;labelBackgroundColor=#ffffff;verticalAlign=top;align=center;perimeter=rhombusPerimeter;outlineConnect=0;outline=none;symbol=none;gwType=exclusive;" parent="1" vertex="1">
          <mxGeometry x="720" y="335" width="50" height="50" as="geometry" />
        </mxCell>
        <mxCell id="jXzjgC-DZ79DmXHGKMOa-23" value="" style="points=[[0.145,0.145,0],[0.5,0,0],[0.855,0.145,0],[1,0.5,0],[0.855,0.855,0],[0.5,1,0],[0.145,0.855,0],[0,0.5,0]];shape=mxgraph.bpmn.event;html=1;verticalLabelPosition=bottom;labelBackgroundColor=#ffffff;verticalAlign=top;align=center;perimeter=ellipsePerimeter;outlineConnect=0;aspect=fixed;outline=end;symbol=terminate2;" parent="1" vertex="1">
          <mxGeometry x="720" y="440" width="50" height="50" as="geometry" />
        </mxCell>
        <mxCell id="jXzjgC-DZ79DmXHGKMOa-35" style="edgeStyle=none;rounded=0;orthogonalLoop=1;jettySize=auto;html=1;" parent="1" source="jXzjgC-DZ79DmXHGKMOa-27" target="jXzjgC-DZ79DmXHGKMOa-36" edge="1">
          <mxGeometry relative="1" as="geometry">
            <mxPoint x="1000" y="360" as="targetPoint" />
          </mxGeometry>
        </mxCell>
        <mxCell id="jXzjgC-DZ79DmXHGKMOa-27" value="&lt;span style=&quot;white-space: pre;&quot;&gt;&#x9;&lt;/span&gt;Move files into &quot;live&quot; data layer, zip files if multiple files." style="points=[[0.25,0,0],[0.5,0,0],[0.75,0,0],[1,0.25,0],[1,0.5,0],[1,0.75,0],[0.75,1,0],[0.5,1,0],[0.25,1,0],[0,0.75,0],[0,0.5,0],[0,0.25,0]];shape=mxgraph.bpmn.task;whiteSpace=wrap;rectStyle=rounded;size=10;html=1;taskMarker=service;align=center;" parent="1" vertex="1">
          <mxGeometry x="800" y="320" width="120" height="80" as="geometry" />
        </mxCell>
        <mxCell id="jXzjgC-DZ79DmXHGKMOa-29" value="[no malware]" style="text;html=1;strokeColor=none;fillColor=none;align=center;verticalAlign=middle;whiteSpace=wrap;rounded=0;" parent="1" vertex="1">
          <mxGeometry x="720" y="305" width="80" height="30" as="geometry" />
        </mxCell>
        <mxCell id="jXzjgC-DZ79DmXHGKMOa-30" value="[malware identified]" style="text;html=1;strokeColor=none;fillColor=none;align=center;verticalAlign=middle;whiteSpace=wrap;rounded=0;" parent="1" vertex="1">
          <mxGeometry x="670" y="390" width="80" height="30" as="geometry" />
        </mxCell>
        <mxCell id="jXzjgC-DZ79DmXHGKMOa-36" value="" style="points=[[0.145,0.145,0],[0.5,0,0],[0.855,0.145,0],[1,0.5,0],[0.855,0.855,0],[0.5,1,0],[0.145,0.855,0],[0,0.5,0]];shape=mxgraph.bpmn.event;html=1;verticalLabelPosition=bottom;labelBackgroundColor=#ffffff;verticalAlign=top;align=center;perimeter=ellipsePerimeter;outlineConnect=0;aspect=fixed;outline=end;symbol=terminate2;" parent="1" vertex="1">
          <mxGeometry x="1000" y="335" width="50" height="50" as="geometry" />
        </mxCell>
        <mxCell id="jXzjgC-DZ79DmXHGKMOa-39" style="edgeStyle=none;rounded=0;orthogonalLoop=1;jettySize=auto;html=1;" parent="1" source="jXzjgC-DZ79DmXHGKMOa-37" target="jXzjgC-DZ79DmXHGKMOa-38" edge="1">
          <mxGeometry relative="1" as="geometry" />
        </mxCell>
        <mxCell id="jXzjgC-DZ79DmXHGKMOa-37" value="" style="points=[[0.145,0.145,0],[0.5,0,0],[0.855,0.145,0],[1,0.5,0],[0.855,0.855,0],[0.5,1,0],[0.145,0.855,0],[0,0.5,0]];shape=mxgraph.bpmn.event;html=1;verticalLabelPosition=bottom;labelBackgroundColor=#ffffff;verticalAlign=top;align=center;perimeter=ellipsePerimeter;outlineConnect=0;aspect=fixed;outline=standard;symbol=timer;" parent="1" vertex="1">
          <mxGeometry x="40" y="735" width="50" height="50" as="geometry" />
        </mxCell>
        <mxCell id="jXzjgC-DZ79DmXHGKMOa-41" style="edgeStyle=none;rounded=0;orthogonalLoop=1;jettySize=auto;html=1;entryX=0;entryY=0.5;entryDx=0;entryDy=0;entryPerimeter=0;" parent="1" source="jXzjgC-DZ79DmXHGKMOa-38" target="jXzjgC-DZ79DmXHGKMOa-42" edge="1">
          <mxGeometry relative="1" as="geometry">
            <mxPoint x="319.9999999999998" y="760" as="targetPoint" />
          </mxGeometry>
        </mxCell>
        <mxCell id="jXzjgC-DZ79DmXHGKMOa-38" value="Scan all files for retention period." style="points=[[0.25,0,0],[0.5,0,0],[0.75,0,0],[1,0.25,0],[1,0.5,0],[1,0.75,0],[0.75,1,0],[0.5,1,0],[0.25,1,0],[0,0.75,0],[0,0.5,0],[0,0.25,0]];shape=mxgraph.bpmn.task;whiteSpace=wrap;rectStyle=rounded;size=10;html=1;taskMarker=service;" parent="1" vertex="1">
          <mxGeometry x="160" y="720" width="120" height="80" as="geometry" />
        </mxCell>
        <mxCell id="jXzjgC-DZ79DmXHGKMOa-44" value="" style="edgeStyle=none;rounded=0;orthogonalLoop=1;jettySize=auto;html=1;" parent="1" source="jXzjgC-DZ79DmXHGKMOa-42" target="jXzjgC-DZ79DmXHGKMOa-43" edge="1">
          <mxGeometry relative="1" as="geometry" />
        </mxCell>
        <mxCell id="jXzjgC-DZ79DmXHGKMOa-42" value="Soft delete DataSets exceeding retention period." style="points=[[0.25,0,0],[0.5,0,0],[0.75,0,0],[1,0.25,0],[1,0.5,0],[1,0.75,0],[0.75,1,0],[0.5,1,0],[0.25,1,0],[0,0.75,0],[0,0.5,0],[0,0.25,0]];shape=mxgraph.bpmn.task;whiteSpace=wrap;rectStyle=rounded;size=10;html=1;taskMarker=service;" parent="1" vertex="1">
          <mxGeometry x="360" y="720" width="120" height="80" as="geometry" />
        </mxCell>
        <mxCell id="jXzjgC-DZ79DmXHGKMOa-46" style="edgeStyle=none;rounded=0;orthogonalLoop=1;jettySize=auto;html=1;" parent="1" source="jXzjgC-DZ79DmXHGKMOa-43" target="jXzjgC-DZ79DmXHGKMOa-45" edge="1">
          <mxGeometry relative="1" as="geometry" />
        </mxCell>
        <mxCell id="jXzjgC-DZ79DmXHGKMOa-43" value="Hard delete, soft deleted DataSets, after &quot;purge&quot; period is exceeded." style="points=[[0.25,0,0],[0.5,0,0],[0.75,0,0],[1,0.25,0],[1,0.5,0],[1,0.75,0],[0.75,1,0],[0.5,1,0],[0.25,1,0],[0,0.75,0],[0,0.5,0],[0,0.25,0]];shape=mxgraph.bpmn.task;whiteSpace=wrap;rectStyle=rounded;size=10;html=1;taskMarker=service;" parent="1" vertex="1">
          <mxGeometry x="560" y="720" width="120" height="80" as="geometry" />
        </mxCell>
        <mxCell id="jXzjgC-DZ79DmXHGKMOa-45" value="" style="points=[[0.145,0.145,0],[0.5,0,0],[0.855,0.145,0],[1,0.5,0],[0.855,0.855,0],[0.5,1,0],[0.145,0.855,0],[0,0.5,0]];shape=mxgraph.bpmn.event;html=1;verticalLabelPosition=bottom;labelBackgroundColor=#ffffff;verticalAlign=top;align=center;perimeter=ellipsePerimeter;outlineConnect=0;aspect=fixed;outline=end;symbol=terminate2;" parent="1" vertex="1">
          <mxGeometry x="760" y="735" width="50" height="50" as="geometry" />
        </mxCell>
        <mxCell id="jXzjgC-DZ79DmXHGKMOa-49" style="edgeStyle=none;rounded=0;orthogonalLoop=1;jettySize=auto;html=1;exitX=0;exitY=0.5;exitDx=0;exitDy=0;exitPerimeter=0;endArrow=none;endFill=0;" parent="1" source="jXzjgC-DZ79DmXHGKMOa-47" target="jXzjgC-DZ79DmXHGKMOa-42" edge="1">
          <mxGeometry relative="1" as="geometry" />
        </mxCell>
        <mxCell id="jXzjgC-DZ79DmXHGKMOa-47" value="Data remains in storage&lt;br&gt;and DataSet record in DB is&lt;br&gt;set to deleted." style="html=1;shape=mxgraph.flowchart.annotation_2;align=left;labelPosition=right;" parent="1" vertex="1">
          <mxGeometry x="430" y="620" width="60" height="60" as="geometry" />
        </mxCell>
        <mxCell id="jXzjgC-DZ79DmXHGKMOa-50" style="edgeStyle=none;rounded=0;orthogonalLoop=1;jettySize=auto;html=1;exitX=0;exitY=0.5;exitDx=0;exitDy=0;exitPerimeter=0;endArrow=none;endFill=0;" parent="1" source="jXzjgC-DZ79DmXHGKMOa-51" target="jXzjgC-DZ79DmXHGKMOa-43" edge="1">
          <mxGeometry relative="1" as="geometry">
            <mxPoint x="639.9982608695652" y="940" as="targetPoint" />
          </mxGeometry>
        </mxCell>
        <mxCell id="jXzjgC-DZ79DmXHGKMOa-51" value="Data is deleted from storage&lt;br&gt;and DataSet record deleted from DB.&lt;br&gt;&lt;br&gt;&quot;purge&quot; period can be configured" style="html=1;shape=mxgraph.flowchart.annotation_2;align=left;labelPosition=right;" parent="1" vertex="1">
          <mxGeometry x="646.52" y="840" width="60" height="70" as="geometry" />
        </mxCell>
        <mxCell id="jXzjgC-DZ79DmXHGKMOa-52" style="edgeStyle=none;rounded=0;orthogonalLoop=1;jettySize=auto;html=1;exitX=0;exitY=0.5;exitDx=0;exitDy=0;exitPerimeter=0;endArrow=none;endFill=0;" parent="1" source="jXzjgC-DZ79DmXHGKMOa-53" edge="1">
          <mxGeometry relative="1" as="geometry">
            <mxPoint x="220.00434782608704" y="800" as="targetPoint" />
          </mxGeometry>
        </mxCell>
        <mxCell id="jXzjgC-DZ79DmXHGKMOa-53" value="&quot;retention&quot; time is set&lt;br&gt;by the user during upload&lt;br&gt;within pre-configured limits" style="html=1;shape=mxgraph.flowchart.annotation_2;align=left;labelPosition=right;" parent="1" vertex="1">
          <mxGeometry x="237.3" y="840" width="60" height="50" as="geometry" />
        </mxCell>
        <mxCell id="jXzjgC-DZ79DmXHGKMOa-54" style="edgeStyle=none;rounded=0;orthogonalLoop=1;jettySize=auto;html=1;exitX=0;exitY=0.5;exitDx=0;exitDy=0;exitPerimeter=0;endArrow=none;endFill=0;" parent="1" source="jXzjgC-DZ79DmXHGKMOa-55" edge="1">
          <mxGeometry relative="1" as="geometry">
            <mxPoint x="879.9963636363635" y="320" as="targetPoint" />
          </mxGeometry>
        </mxCell>
        <mxCell id="jXzjgC-DZ79DmXHGKMOa-55" value="At this stage the DataSet&lt;br&gt;is available for download." style="html=1;shape=mxgraph.flowchart.annotation_2;align=left;labelPosition=right;" parent="1" vertex="1">
          <mxGeometry x="886.36" y="240" width="60" height="40" as="geometry" />
        </mxCell>
      </root>
    </mxGraphModel>
  </diagram>
  <diagram id="P_aZJdEvO7vGNViu_pgh" name="DataSet Lifecycle">
    <mxGraphModel dx="1295" dy="743" grid="1" gridSize="10" guides="1" tooltips="1" connect="1" arrows="1" fold="1" page="1" pageScale="1" pageWidth="827" pageHeight="1169" math="0" shadow="0">
      <root>
        <mxCell id="0" />
        <mxCell id="1" parent="0" />
        <mxCell id="glJEh3_tHizG694vLLFI-35" style="edgeStyle=orthogonalEdgeStyle;rounded=0;orthogonalLoop=1;jettySize=auto;html=1;" parent="1" source="glJEh3_tHizG694vLLFI-1" target="glJEh3_tHizG694vLLFI-34" edge="1">
          <mxGeometry relative="1" as="geometry" />
        </mxCell>
        <mxCell id="glJEh3_tHizG694vLLFI-1" value="initial" style="rounded=1;whiteSpace=wrap;html=1;" parent="1" vertex="1">
          <mxGeometry x="354" y="120" width="120" height="60" as="geometry" />
        </mxCell>
        <mxCell id="glJEh3_tHizG694vLLFI-8" style="edgeStyle=orthogonalEdgeStyle;rounded=0;orthogonalLoop=1;jettySize=auto;html=1;exitX=0.5;exitY=1;exitDx=0;exitDy=0;entryX=0.5;entryY=0;entryDx=0;entryDy=0;" parent="1" source="glJEh3_tHizG694vLLFI-23" target="glJEh3_tHizG694vLLFI-57" edge="1">
          <mxGeometry relative="1" as="geometry">
            <mxPoint x="414" y="580" as="targetPoint" />
          </mxGeometry>
        </mxCell>
        <mxCell id="glJEh3_tHizG694vLLFI-55" value="process_dataset(...)&lt;div&gt;&amp;gt; malwarescan(...)&lt;/div&gt;" style="edgeLabel;html=1;align=left;verticalAlign=middle;resizable=0;points=[];" parent="glJEh3_tHizG694vLLFI-8" vertex="1" connectable="0">
          <mxGeometry x="-0.1412" y="-1" relative="1" as="geometry">
            <mxPoint x="-33" as="offset" />
          </mxGeometry>
        </mxCell>
        <mxCell id="glJEh3_tHizG694vLLFI-24" style="edgeStyle=orthogonalEdgeStyle;rounded=0;orthogonalLoop=1;jettySize=auto;html=1;" parent="1" source="glJEh3_tHizG694vLLFI-2" target="glJEh3_tHizG694vLLFI-23" edge="1">
          <mxGeometry relative="1" as="geometry" />
        </mxCell>
        <mxCell id="glJEh3_tHizG694vLLFI-53" value="process_dataset(...)" style="edgeLabel;html=1;align=center;verticalAlign=middle;resizable=0;points=[];" parent="glJEh3_tHizG694vLLFI-24" vertex="1" connectable="0">
          <mxGeometry x="-0.3314" y="-1" relative="1" as="geometry">
            <mxPoint as="offset" />
          </mxGeometry>
        </mxCell>
        <mxCell id="glJEh3_tHizG694vLLFI-2" value="uploaded" style="rounded=1;whiteSpace=wrap;html=1;" parent="1" vertex="1">
          <mxGeometry x="354" y="360" width="120" height="60" as="geometry" />
        </mxCell>
        <mxCell id="glJEh3_tHizG694vLLFI-9" style="edgeStyle=orthogonalEdgeStyle;rounded=0;orthogonalLoop=1;jettySize=auto;html=1;" parent="1" source="glJEh3_tHizG694vLLFI-3" target="glJEh3_tHizG694vLLFI-4" edge="1">
          <mxGeometry relative="1" as="geometry" />
        </mxCell>
        <mxCell id="glJEh3_tHizG694vLLFI-56" value="process_dataset(...)&lt;div&gt;&amp;gt; prepare(...)&lt;/div&gt;" style="edgeLabel;html=1;align=left;verticalAlign=middle;resizable=0;points=[];" parent="glJEh3_tHizG694vLLFI-9" vertex="1" connectable="0">
          <mxGeometry x="-0.3025" y="-1" relative="1" as="geometry">
            <mxPoint x="-43" y="9" as="offset" />
          </mxGeometry>
        </mxCell>
        <mxCell id="glJEh3_tHizG694vLLFI-3" value="scanned" style="rounded=1;whiteSpace=wrap;html=1;" parent="1" vertex="1">
          <mxGeometry x="354" y="700" width="120" height="60" as="geometry" />
        </mxCell>
        <mxCell id="glJEh3_tHizG694vLLFI-10" style="edgeStyle=orthogonalEdgeStyle;rounded=0;orthogonalLoop=1;jettySize=auto;html=1;" parent="1" source="glJEh3_tHizG694vLLFI-4" target="YKJFRvYf2Dl-Twt22JpF-1" edge="1">
          <mxGeometry relative="1" as="geometry">
            <mxPoint x="414" y="940" as="targetPoint" />
          </mxGeometry>
        </mxCell>
        <mxCell id="glJEh3_tHizG694vLLFI-65" value="process_dataset(...)&lt;div&gt;&amp;gt; update_dataset_promote(...)&lt;/div&gt;" style="edgeLabel;html=1;align=left;verticalAlign=middle;resizable=0;points=[];" parent="glJEh3_tHizG694vLLFI-10" vertex="1" connectable="0">
          <mxGeometry x="-0.1865" y="-1" relative="1" as="geometry">
            <mxPoint x="-59" as="offset" />
          </mxGeometry>
        </mxCell>
        <mxCell id="glJEh3_tHizG694vLLFI-4" value="prepared" style="rounded=1;whiteSpace=wrap;html=1;" parent="1" vertex="1">
          <mxGeometry x="354" y="820" width="120" height="60" as="geometry" />
        </mxCell>
        <mxCell id="glJEh3_tHizG694vLLFI-11" style="edgeStyle=orthogonalEdgeStyle;rounded=0;orthogonalLoop=1;jettySize=auto;html=1;" parent="1" source="glJEh3_tHizG694vLLFI-5" target="glJEh3_tHizG694vLLFI-6" edge="1">
          <mxGeometry relative="1" as="geometry" />
        </mxCell>
        <mxCell id="glJEh3_tHizG694vLLFI-66" value="cleanup()&lt;div&gt;&amp;gt; delete_dataset_soft(...)&lt;/div&gt;" style="edgeLabel;html=1;align=left;verticalAlign=middle;resizable=0;points=[];" parent="glJEh3_tHizG694vLLFI-11" vertex="1" connectable="0">
          <mxGeometry x="-0.2445" y="1" relative="1" as="geometry">
            <mxPoint x="-61" y="7" as="offset" />
          </mxGeometry>
        </mxCell>
        <mxCell id="glJEh3_tHizG694vLLFI-19" style="edgeStyle=orthogonalEdgeStyle;rounded=0;orthogonalLoop=1;jettySize=auto;html=1;entryX=1;entryY=0.75;entryDx=0;entryDy=0;exitX=0;exitY=0.75;exitDx=0;exitDy=0;" parent="1" source="glJEh3_tHizG694vLLFI-5" target="glJEh3_tHizG694vLLFI-17" edge="1">
          <mxGeometry relative="1" as="geometry" />
        </mxCell>
        <mxCell id="glJEh3_tHizG694vLLFI-70" value="add_files(...)&lt;div&gt;delete_files(...)&lt;/div&gt;" style="edgeLabel;html=1;align=left;verticalAlign=middle;resizable=0;points=[];" parent="glJEh3_tHizG694vLLFI-19" vertex="1" connectable="0">
          <mxGeometry x="0.2916" y="-1" relative="1" as="geometry">
            <mxPoint x="-10" y="1" as="offset" />
          </mxGeometry>
        </mxCell>
        <mxCell id="glJEh3_tHizG694vLLFI-5" value="available" style="rounded=1;whiteSpace=wrap;html=1;" parent="1" vertex="1">
          <mxGeometry x="354" y="1040" width="120" height="60" as="geometry" />
        </mxCell>
        <mxCell id="glJEh3_tHizG694vLLFI-15" style="edgeStyle=orthogonalEdgeStyle;rounded=0;orthogonalLoop=1;jettySize=auto;html=1;" parent="1" source="glJEh3_tHizG694vLLFI-6" target="glJEh3_tHizG694vLLFI-14" edge="1">
          <mxGeometry relative="1" as="geometry" />
        </mxCell>
        <mxCell id="glJEh3_tHizG694vLLFI-6" value="deleted" style="rounded=1;whiteSpace=wrap;html=1;" parent="1" vertex="1">
          <mxGeometry x="354" y="1160" width="120" height="60" as="geometry" />
        </mxCell>
        <mxCell id="glJEh3_tHizG694vLLFI-13" style="edgeStyle=orthogonalEdgeStyle;rounded=0;orthogonalLoop=1;jettySize=auto;html=1;" parent="1" source="glJEh3_tHizG694vLLFI-12" target="glJEh3_tHizG694vLLFI-1" edge="1">
          <mxGeometry relative="1" as="geometry" />
        </mxCell>
        <mxCell id="glJEh3_tHizG694vLLFI-44" value="add_dataset(...)" style="edgeLabel;html=1;align=center;verticalAlign=middle;resizable=0;points=[];" parent="glJEh3_tHizG694vLLFI-13" vertex="1" connectable="0">
          <mxGeometry x="-0.2735" y="2" relative="1" as="geometry">
            <mxPoint as="offset" />
          </mxGeometry>
        </mxCell>
        <mxCell id="glJEh3_tHizG694vLLFI-12" value="" style="points=[[0.145,0.145,0],[0.5,0,0],[0.855,0.145,0],[1,0.5,0],[0.855,0.855,0],[0.5,1,0],[0.145,0.855,0],[0,0.5,0]];shape=mxgraph.bpmn.event;html=1;verticalLabelPosition=bottom;labelBackgroundColor=#ffffff;verticalAlign=top;align=center;perimeter=ellipsePerimeter;outlineConnect=0;aspect=fixed;outline=standard;symbol=general;" parent="1" vertex="1">
          <mxGeometry x="389" y="10" width="50" height="50" as="geometry" />
        </mxCell>
        <mxCell id="glJEh3_tHizG694vLLFI-14" value="" style="points=[[0.145,0.145,0],[0.5,0,0],[0.855,0.145,0],[1,0.5,0],[0.855,0.855,0],[0.5,1,0],[0.145,0.855,0],[0,0.5,0]];shape=mxgraph.bpmn.event;html=1;verticalLabelPosition=bottom;labelBackgroundColor=#ffffff;verticalAlign=top;align=center;perimeter=ellipsePerimeter;outlineConnect=0;aspect=fixed;outline=end;symbol=terminate2;" parent="1" vertex="1">
          <mxGeometry x="389" y="1280" width="50" height="50" as="geometry" />
        </mxCell>
        <mxCell id="glJEh3_tHizG694vLLFI-30" style="edgeStyle=orthogonalEdgeStyle;rounded=0;orthogonalLoop=1;jettySize=auto;html=1;" parent="1" source="glJEh3_tHizG694vLLFI-17" target="glJEh3_tHizG694vLLFI-29" edge="1">
          <mxGeometry relative="1" as="geometry" />
        </mxCell>
        <mxCell id="glJEh3_tHizG694vLLFI-72" value="process_dataset(...)" style="edgeLabel;html=1;align=center;verticalAlign=middle;resizable=0;points=[];" parent="glJEh3_tHizG694vLLFI-30" vertex="1" connectable="0">
          <mxGeometry x="-0.0118" relative="1" as="geometry">
            <mxPoint as="offset" />
          </mxGeometry>
        </mxCell>
        <mxCell id="glJEh3_tHizG694vLLFI-17" value="changing" style="rounded=1;whiteSpace=wrap;html=1;" parent="1" vertex="1">
          <mxGeometry x="120" y="1040" width="120" height="60" as="geometry" />
        </mxCell>
        <mxCell id="glJEh3_tHizG694vLLFI-42" style="edgeStyle=orthogonalEdgeStyle;rounded=0;orthogonalLoop=1;jettySize=auto;html=1;entryX=1;entryY=0.5;entryDx=0;entryDy=0;exitX=1;exitY=0.5;exitDx=0;exitDy=0;" parent="1" source="glJEh3_tHizG694vLLFI-23" target="glJEh3_tHizG694vLLFI-4" edge="1">
          <mxGeometry relative="1" as="geometry">
            <Array as="points">
              <mxPoint x="560" y="505" />
              <mxPoint x="560" y="850" />
            </Array>
          </mxGeometry>
        </mxCell>
        <mxCell id="glJEh3_tHizG694vLLFI-54" value="process_dataset(...)&lt;div&gt;&amp;gt; prepare(...)&lt;/div&gt;" style="edgeLabel;html=1;align=left;verticalAlign=middle;resizable=0;points=[];" parent="glJEh3_tHizG694vLLFI-42" vertex="1" connectable="0">
          <mxGeometry x="-0.3106" y="-1" relative="1" as="geometry">
            <mxPoint x="-59" y="-34" as="offset" />
          </mxGeometry>
        </mxCell>
        <mxCell id="glJEh3_tHizG694vLLFI-23" value="" style="rhombus;whiteSpace=wrap;html=1;" parent="1" vertex="1">
          <mxGeometry x="389" y="480" width="50" height="50" as="geometry" />
        </mxCell>
        <mxCell id="glJEh3_tHizG694vLLFI-31" style="edgeStyle=orthogonalEdgeStyle;rounded=0;orthogonalLoop=1;jettySize=auto;html=1;entryX=0;entryY=0.5;entryDx=0;entryDy=0;exitX=0.5;exitY=0;exitDx=0;exitDy=0;" parent="1" source="glJEh3_tHizG694vLLFI-29" target="glJEh3_tHizG694vLLFI-57" edge="1">
          <mxGeometry relative="1" as="geometry" />
        </mxCell>
        <mxCell id="glJEh3_tHizG694vLLFI-58" value="process_dataset(...)&lt;div&gt;&amp;gt; malwarescan(...)&lt;/div&gt;" style="edgeLabel;html=1;align=left;verticalAlign=middle;resizable=0;points=[];" parent="glJEh3_tHizG694vLLFI-31" vertex="1" connectable="0">
          <mxGeometry x="-0.5364" y="-2" relative="1" as="geometry">
            <mxPoint x="-42" as="offset" />
          </mxGeometry>
        </mxCell>
        <mxCell id="glJEh3_tHizG694vLLFI-32" style="edgeStyle=orthogonalEdgeStyle;rounded=0;orthogonalLoop=1;jettySize=auto;html=1;" parent="1" source="glJEh3_tHizG694vLLFI-29" target="glJEh3_tHizG694vLLFI-4" edge="1">
          <mxGeometry relative="1" as="geometry" />
        </mxCell>
        <mxCell id="glJEh3_tHizG694vLLFI-74" value="process_dataset(...)&lt;div&gt;&amp;gt; prepare(...)&lt;/div&gt;" style="edgeLabel;html=1;align=left;verticalAlign=middle;resizable=0;points=[];" parent="glJEh3_tHizG694vLLFI-32" vertex="1" connectable="0">
          <mxGeometry x="-0.2333" y="-1" relative="1" as="geometry">
            <mxPoint x="-42" y="-1" as="offset" />
          </mxGeometry>
        </mxCell>
        <mxCell id="glJEh3_tHizG694vLLFI-29" value="" style="rhombus;whiteSpace=wrap;html=1;" parent="1" vertex="1">
          <mxGeometry x="155" y="825" width="50" height="50" as="geometry" />
        </mxCell>
        <mxCell id="glJEh3_tHizG694vLLFI-36" style="edgeStyle=orthogonalEdgeStyle;rounded=0;orthogonalLoop=1;jettySize=auto;html=1;" parent="1" source="glJEh3_tHizG694vLLFI-34" target="glJEh3_tHizG694vLLFI-2" edge="1">
          <mxGeometry relative="1" as="geometry" />
        </mxCell>
        <mxCell id="glJEh3_tHizG694vLLFI-47" value="add_chunk!(...)" style="edgeLabel;html=1;align=center;verticalAlign=middle;resizable=0;points=[];" parent="glJEh3_tHizG694vLLFI-36" vertex="1" connectable="0">
          <mxGeometry x="-0.2406" y="-2" relative="1" as="geometry">
            <mxPoint as="offset" />
          </mxGeometry>
        </mxCell>
        <mxCell id="glJEh3_tHizG694vLLFI-43" style="edgeStyle=orthogonalEdgeStyle;rounded=0;orthogonalLoop=1;jettySize=auto;html=1;exitX=1;exitY=0.5;exitDx=0;exitDy=0;entryX=1;entryY=0.5;entryDx=0;entryDy=0;" parent="1" source="glJEh3_tHizG694vLLFI-34" target="glJEh3_tHizG694vLLFI-5" edge="1">
          <mxGeometry relative="1" as="geometry">
            <Array as="points">
              <mxPoint x="600" y="265" />
              <mxPoint x="600" y="1070" />
            </Array>
          </mxGeometry>
        </mxCell>
        <mxCell id="glJEh3_tHizG694vLLFI-75" value="process_dataset(...)&lt;div&gt;&amp;gt; update_dataset_promote()&lt;/div&gt;" style="edgeLabel;html=1;align=left;verticalAlign=middle;resizable=0;points=[];" parent="glJEh3_tHizG694vLLFI-43" vertex="1" connectable="0">
          <mxGeometry x="-0.5608" y="1" relative="1" as="geometry">
            <mxPoint x="-56" as="offset" />
          </mxGeometry>
        </mxCell>
        <mxCell id="glJEh3_tHizG694vLLFI-34" value="" style="rhombus;whiteSpace=wrap;html=1;" parent="1" vertex="1">
          <mxGeometry x="389" y="240" width="50" height="50" as="geometry" />
        </mxCell>
        <mxCell id="glJEh3_tHizG694vLLFI-49" value="else" style="text;html=1;align=center;verticalAlign=middle;resizable=0;points=[];autosize=1;strokeColor=none;fillColor=none;" parent="1" vertex="1">
          <mxGeometry x="364" y="270" width="50" height="30" as="geometry" />
        </mxCell>
        <mxCell id="glJEh3_tHizG694vLLFI-50" value="data set is empty" style="text;html=1;align=center;verticalAlign=middle;resizable=0;points=[];autosize=1;strokeColor=none;fillColor=none;" parent="1" vertex="1">
          <mxGeometry x="430" y="230" width="110" height="30" as="geometry" />
        </mxCell>
        <mxCell id="glJEh3_tHizG694vLLFI-51" value="maleware protection&lt;div&gt;&lt;span style=&quot;background-color: transparent; color: light-dark(rgb(0, 0, 0), rgb(255, 255, 255));&quot;&gt;is disabled&lt;/span&gt;&lt;/div&gt;" style="text;html=1;align=center;verticalAlign=middle;resizable=0;points=[];autosize=1;strokeColor=none;fillColor=none;" parent="1" vertex="1">
          <mxGeometry x="420" y="470" width="130" height="40" as="geometry" />
        </mxCell>
        <mxCell id="glJEh3_tHizG694vLLFI-52" value="else" style="text;html=1;align=center;verticalAlign=middle;resizable=0;points=[];autosize=1;strokeColor=none;fillColor=none;" parent="1" vertex="1">
          <mxGeometry x="364" y="518" width="50" height="30" as="geometry" />
        </mxCell>
        <mxCell id="glJEh3_tHizG694vLLFI-59" style="edgeStyle=orthogonalEdgeStyle;rounded=0;orthogonalLoop=1;jettySize=auto;html=1;entryX=1;entryY=0.5;entryDx=0;entryDy=0;exitX=1;exitY=0.5;exitDx=0;exitDy=0;" parent="1" source="glJEh3_tHizG694vLLFI-57" target="glJEh3_tHizG694vLLFI-6" edge="1">
          <mxGeometry relative="1" as="geometry">
            <Array as="points">
              <mxPoint x="640" y="625" />
              <mxPoint x="640" y="1190" />
            </Array>
          </mxGeometry>
        </mxCell>
        <mxCell id="glJEh3_tHizG694vLLFI-61" value="&lt;div&gt;process_dataset(...)&lt;/div&gt;&lt;div&gt;&amp;gt; malwarescan(...)&lt;/div&gt;&amp;gt;&amp;gt; delete_dataset_hard(...)" style="edgeLabel;html=1;align=left;verticalAlign=middle;resizable=0;points=[];" parent="glJEh3_tHizG694vLLFI-59" vertex="1" connectable="0">
          <mxGeometry x="-0.4357" y="2" relative="1" as="geometry">
            <mxPoint x="-32" y="1" as="offset" />
          </mxGeometry>
        </mxCell>
        <mxCell id="glJEh3_tHizG694vLLFI-62" style="edgeStyle=orthogonalEdgeStyle;rounded=0;orthogonalLoop=1;jettySize=auto;html=1;entryX=0.5;entryY=0;entryDx=0;entryDy=0;" parent="1" source="glJEh3_tHizG694vLLFI-57" target="glJEh3_tHizG694vLLFI-3" edge="1">
          <mxGeometry relative="1" as="geometry" />
        </mxCell>
        <mxCell id="glJEh3_tHizG694vLLFI-57" value="" style="rhombus;whiteSpace=wrap;html=1;" parent="1" vertex="1">
          <mxGeometry x="389" y="600" width="50" height="50" as="geometry" />
        </mxCell>
        <mxCell id="glJEh3_tHizG694vLLFI-60" value="check failed or&lt;div&gt;malware&amp;nbsp;&lt;span style=&quot;background-color: transparent; color: light-dark(rgb(0, 0, 0), rgb(255, 255, 255));&quot;&gt;detected&lt;/span&gt;&lt;/div&gt;" style="text;html=1;align=center;verticalAlign=middle;resizable=0;points=[];autosize=1;strokeColor=none;fillColor=none;" parent="1" vertex="1">
          <mxGeometry x="425" y="585" width="120" height="40" as="geometry" />
        </mxCell>
        <mxCell id="glJEh3_tHizG694vLLFI-64" value="else" style="text;html=1;align=center;verticalAlign=middle;resizable=0;points=[];autosize=1;strokeColor=none;fillColor=none;" parent="1" vertex="1">
          <mxGeometry x="364" y="638" width="50" height="30" as="geometry" />
        </mxCell>
        <mxCell id="glJEh3_tHizG694vLLFI-68" style="edgeStyle=orthogonalEdgeStyle;rounded=0;orthogonalLoop=1;jettySize=auto;html=1;entryX=0;entryY=0.5;entryDx=0;entryDy=0;" parent="1" source="glJEh3_tHizG694vLLFI-67" target="glJEh3_tHizG694vLLFI-6" edge="1">
          <mxGeometry relative="1" as="geometry" />
        </mxCell>
        <mxCell id="glJEh3_tHizG694vLLFI-67" value="All" style="text;html=1;align=center;verticalAlign=middle;resizable=0;points=[];autosize=1;strokeColor=none;fillColor=none;" parent="1" vertex="1">
          <mxGeometry x="160" y="1175" width="40" height="30" as="geometry" />
        </mxCell>
        <mxCell id="glJEh3_tHizG694vLLFI-69" value="cleanup()&lt;div&gt;&amp;gt; delete_dataset_soft(...)&lt;/div&gt;" style="edgeLabel;html=1;align=left;verticalAlign=middle;resizable=0;points=[];" parent="1" vertex="1" connectable="0">
          <mxGeometry x="210" y="1190" as="geometry" />
        </mxCell>
        <mxCell id="YKJFRvYf2Dl-Twt22JpF-2" style="edgeStyle=orthogonalEdgeStyle;rounded=0;orthogonalLoop=1;jettySize=auto;html=1;" edge="1" parent="1" source="YKJFRvYf2Dl-Twt22JpF-1" target="glJEh3_tHizG694vLLFI-5">
          <mxGeometry relative="1" as="geometry" />
        </mxCell>
        <mxCell id="YKJFRvYf2Dl-Twt22JpF-4" style="edgeStyle=orthogonalEdgeStyle;rounded=0;orthogonalLoop=1;jettySize=auto;html=1;entryX=1;entryY=0.25;entryDx=0;entryDy=0;" edge="1" parent="1" source="YKJFRvYf2Dl-Twt22JpF-1" target="glJEh3_tHizG694vLLFI-17">
          <mxGeometry relative="1" as="geometry" />
        </mxCell>
        <mxCell id="YKJFRvYf2Dl-Twt22JpF-1" value="" style="rhombus;whiteSpace=wrap;html=1;" vertex="1" parent="1">
          <mxGeometry x="389" y="940" width="50" height="50" as="geometry" />
        </mxCell>
        <mxCell id="YKJFRvYf2Dl-Twt22JpF-5" value="new changes in progress" style="text;html=1;align=center;verticalAlign=middle;resizable=0;points=[];autosize=1;strokeColor=none;fillColor=none;" vertex="1" parent="1">
          <mxGeometry x="240" y="938" width="160" height="30" as="geometry" />
        </mxCell>
        <mxCell id="YKJFRvYf2Dl-Twt22JpF-6" value="else" style="text;html=1;align=center;verticalAlign=middle;resizable=0;points=[];autosize=1;strokeColor=none;fillColor=none;" vertex="1" parent="1">
          <mxGeometry x="410" y="982" width="50" height="30" as="geometry" />
        </mxCell>
      </root>
    </mxGraphModel>
  </diagram>
  <diagram id="G9VKqwmzIvv5bZfs5CtA" name="Directory Structure">
    <mxGraphModel dx="1878" dy="1077" grid="1" gridSize="10" guides="1" tooltips="1" connect="1" arrows="1" fold="1" page="1" pageScale="1" pageWidth="827" pageHeight="1169" math="0" shadow="0">
      <root>
        <mxCell id="0" />
        <mxCell id="1" parent="0" />
        <mxCell id="0S37QuwqAIJW6giq2RdK-1" value="/ data / &amp;lt;level&amp;gt; / &amp;lt;data set ID&amp;gt; / &amp;lt;change&amp;gt; /" style="text;html=1;align=center;verticalAlign=middle;whiteSpace=wrap;rounded=0;fontSize=24;" vertex="1" parent="1">
          <mxGeometry x="90" y="450" width="530" height="30" as="geometry" />
        </mxCell>
      </root>
    </mxGraphModel>
  </diagram>
</mxfile>
